<svg width="268" height="102" viewBox="0 0 268 102" fill="none" xmlns="http://www.w3.org/2000/svg">
<ellipse cx="49.9949" cy="50.6751" rx="49.9949" ry="50.6751" fill="#C20331"/>
<ellipse cx="218.005" cy="50.6751" rx="49.9949" ry="50.6751" fill="#C20331"/>
<ellipse cx="134" cy="50.6751" rx="49.6548" ry="50.6751" fill="#4A505E"/>
<path d="M182.155 50.6751C182.155 77.8627 160.567 99.8503 134 99.8503C107.433 99.8503 85.8452 77.8627 85.8452 50.6751C85.8452 23.4875 107.433 1.5 134 1.5C160.567 1.5 182.155 23.4875 182.155 50.6751Z" stroke="#C20331" stroke-opacity="0.5" stroke-width="3"/>
<path d="M136.957 47.8852C136.957 47.7752 136.87 47.6859 136.763 47.6859C136.656 47.6859 136.569 47.7752 136.569 47.8852V53.465C136.569 53.5751 136.656 53.6643 136.763 53.6643C136.87 53.6643 136.957 53.5751 136.957 53.465V47.8852Z" fill="#EBE3DE"/>
<path d="M130.556 47.6859C130.664 47.6859 130.75 47.7752 130.75 47.8852V53.465C130.75 53.5751 130.664 53.6643 130.556 53.6643C130.449 53.6643 130.362 53.5751 130.362 53.465V47.8852C130.362 47.7752 130.449 47.6859 130.556 47.6859Z" fill="#EBE3DE"/>
<path fill-rule="evenodd" clip-rule="evenodd" d="M115.039 28.5552C114.932 28.5552 114.845 28.6445 114.845 28.7545V72.5957C114.845 72.7058 114.932 72.795 115.039 72.795H152.28C152.388 72.795 152.474 72.7058 152.474 72.5957V28.7545C152.474 28.6445 152.388 28.5552 152.28 28.5552H115.039ZM133.854 28.9538V72.3965H152.086V28.9538H133.854ZM133.466 28.9538H115.233V72.3965H133.466V28.9538Z" fill="#EBE3DE"/>
<path d="M136.957 47.8852C136.957 47.7752 136.87 47.6859 136.763 47.6859C136.656 47.6859 136.569 47.7752 136.569 47.8852V53.465C136.569 53.5751 136.656 53.6643 136.763 53.6643C136.87 53.6643 136.957 53.5751 136.957 53.465V47.8852Z" stroke="#EBE3DE" stroke-width="5" stroke-linecap="round" stroke-linejoin="round"/>
<path d="M130.556 47.6859C130.664 47.6859 130.75 47.7752 130.75 47.8852V53.465C130.75 53.5751 130.664 53.6643 130.556 53.6643C130.449 53.6643 130.362 53.5751 130.362 53.465V47.8852C130.362 47.7752 130.449 47.6859 130.556 47.6859Z" stroke="#EBE3DE" stroke-width="5" stroke-linecap="round" stroke-linejoin="round"/>
<path fill-rule="evenodd" clip-rule="evenodd" d="M115.039 28.5552C114.932 28.5552 114.845 28.6445 114.845 28.7545V72.5957C114.845 72.7058 114.932 72.795 115.039 72.795H152.28C152.388 72.795 152.474 72.7058 152.474 72.5957V28.7545C152.474 28.6445 152.388 28.5552 152.28 28.5552H115.039ZM133.854 28.9538V72.3965H152.086V28.9538H133.854ZM133.466 28.9538H115.233V72.3965H133.466V28.9538Z" stroke="#EBE3DE" stroke-width="5" stroke-linecap="round" stroke-linejoin="round"/>
<path fill-rule="evenodd" clip-rule="evenodd" d="M49.9949 45.1511C49.2539 45.1511 48.6531 45.74 48.6531 46.4664C48.6531 47.1928 49.2539 47.7816 49.9949 47.7816C50.736 47.7816 51.3367 47.1928 51.3367 46.4664C51.3367 45.74 50.736 45.1511 49.9949 45.1511ZM49.1899 46.4664C49.1899 46.0305 49.5503 45.6772 49.9949 45.6772C50.4396 45.6772 50.8 46.0305 50.8 46.4664C50.8 46.9022 50.4396 47.2555 49.9949 47.2555C49.5503 47.2555 49.1899 46.9022 49.1899 46.4664Z" fill="#EBE3DE"/>
<path fill-rule="evenodd" clip-rule="evenodd" d="M25.3057 50.9382H29.2867L26.209 70.5467C26.134 71.0248 26.5113 71.4559 27.0047 71.4559H27.0361C27.4037 71.4559 27.7247 71.2118 27.816 70.8627L33.028 50.9382L66.9618 50.9382L72.1739 70.8627C72.2652 71.2118 72.5861 71.4559 72.9538 71.4559H72.9851C73.4785 71.4559 73.8559 71.0248 73.7808 70.5467L70.7032 50.9382H74.6842C75.1288 50.9382 75.4893 50.5849 75.4893 50.149V42.7837C75.4893 42.3479 75.1288 41.9946 74.6842 41.9946L25.3057 41.9946C24.8611 41.9946 24.5006 42.3479 24.5006 42.7837L24.5006 50.149C24.5006 50.5849 24.8611 50.9382 25.3057 50.9382ZM25.3057 42.5207C25.1575 42.5207 25.0373 42.6384 25.0373 42.7837L25.0373 50.149C25.0373 50.2943 25.1575 50.4121 25.3057 50.4121L32.8198 50.4121L32.8206 50.4121L67.1686 50.4121L67.1701 50.4121L70.3904 50.4121L70.3918 50.4121H74.6842C74.8324 50.4121 74.9525 50.2943 74.9525 50.149V42.7837C74.9525 42.6384 74.8324 42.5207 74.6842 42.5207L25.3057 42.5207ZM26.7395 70.6267L29.8297 50.9382H32.474L27.2961 70.7321C27.2656 70.8484 27.1587 70.9298 27.0361 70.9298H27.0047C26.8403 70.9298 26.7145 70.7861 26.7395 70.6267ZM72.6938 70.7321L67.5159 50.9382H70.1602L73.2504 70.6267C73.2754 70.7861 73.1496 70.9298 72.9851 70.9298H72.9538C72.8312 70.9298 72.7242 70.8484 72.6938 70.7321Z" fill="#EBE3DE"/>
<path fill-rule="evenodd" clip-rule="evenodd" d="M49.9949 45.1511C49.2539 45.1511 48.6531 45.74 48.6531 46.4664C48.6531 47.1928 49.2539 47.7816 49.9949 47.7816C50.736 47.7816 51.3367 47.1928 51.3367 46.4664C51.3367 45.74 50.736 45.1511 49.9949 45.1511ZM49.1899 46.4664C49.1899 46.0305 49.5503 45.6772 49.9949 45.6772C50.4396 45.6772 50.8 46.0305 50.8 46.4664C50.8 46.9022 50.4396 47.2555 49.9949 47.2555C49.5503 47.2555 49.1899 46.9022 49.1899 46.4664Z" stroke="#EBE3DE" stroke-width="5" stroke-linejoin="round"/>
<path fill-rule="evenodd" clip-rule="evenodd" d="M25.3057 50.9382H29.2867L26.209 70.5467C26.134 71.0248 26.5113 71.4559 27.0047 71.4559H27.0361C27.4037 71.4559 27.7247 71.2118 27.816 70.8627L33.028 50.9382L66.9618 50.9382L72.1739 70.8627C72.2652 71.2118 72.5861 71.4559 72.9538 71.4559H72.9851C73.4785 71.4559 73.8559 71.0248 73.7808 70.5467L70.7032 50.9382H74.6842C75.1288 50.9382 75.4893 50.5849 75.4893 50.149V42.7837C75.4893 42.3479 75.1288 41.9946 74.6842 41.9946L25.3057 41.9946C24.8611 41.9946 24.5006 42.3479 24.5006 42.7837L24.5006 50.149C24.5006 50.5849 24.8611 50.9382 25.3057 50.9382ZM25.3057 42.5207C25.1575 42.5207 25.0373 42.6384 25.0373 42.7837L25.0373 50.149C25.0373 50.2943 25.1575 50.4121 25.3057 50.4121L32.8198 50.4121L32.8206 50.4121L67.1686 50.4121L67.1701 50.4121L70.3904 50.4121L70.3918 50.4121H74.6842C74.8324 50.4121 74.9525 50.2943 74.9525 50.149V42.7837C74.9525 42.6384 74.8324 42.5207 74.6842 42.5207L25.3057 42.5207ZM26.7395 70.6267L29.8297 50.9382H32.474L27.2961 70.7321C27.2656 70.8484 27.1587 70.9298 27.0361 70.9298H27.0047C26.8403 70.9298 26.7145 70.7861 26.7395 70.6267ZM72.6938 70.7321L67.5159 50.9382H70.1602L73.2504 70.6267C73.2754 70.7861 73.1496 70.9298 72.9851 70.9298H72.9538C72.8312 70.9298 72.7242 70.8484 72.6938 70.7321Z" stroke="#EBE3DE" stroke-width="5" stroke-linejoin="round"/>
<path d="M205.83 60.4902C205.83 60.3464 205.958 60.2298 206.115 60.2298H233.124C233.281 60.2298 233.408 60.3464 233.408 60.4902C233.408 60.634 233.281 60.7506 233.124 60.7506H206.115C205.958 60.7506 205.83 60.634 205.83 60.4902Z" fill="#EBE3DE"/>
<path fill-rule="evenodd" clip-rule="evenodd" d="M210.095 34.7116C210.095 34.2802 210.477 33.9304 210.948 33.9304C211.419 33.9304 211.801 34.2802 211.801 34.7116C211.801 35.143 211.419 35.4928 210.948 35.4928C210.477 35.4928 210.095 35.143 210.095 34.7116ZM210.948 34.4512C210.791 34.4512 210.664 34.5678 210.664 34.7116C210.664 34.8554 210.791 34.972 210.948 34.972C211.105 34.972 211.232 34.8554 211.232 34.7116C211.232 34.5678 211.105 34.4512 210.948 34.4512Z" fill="#EBE3DE"/>
<path fill-rule="evenodd" clip-rule="evenodd" d="M210.948 38.6175C210.477 38.6175 210.095 38.9672 210.095 39.3986C210.095 39.8301 210.477 40.1798 210.948 40.1798C211.419 40.1798 211.801 39.8301 211.801 39.3986C211.801 38.9672 211.419 38.6175 210.948 38.6175ZM210.664 39.3986C210.664 39.2548 210.791 39.1382 210.948 39.1382C211.105 39.1382 211.232 39.2548 211.232 39.3986C211.232 39.5424 211.105 39.659 210.948 39.659C210.791 39.659 210.664 39.5424 210.664 39.3986Z" fill="#EBE3DE"/>
<path fill-rule="evenodd" clip-rule="evenodd" d="M216.35 34.7116C216.35 34.2802 216.732 33.9304 217.203 33.9304C217.674 33.9304 218.056 34.2802 218.056 34.7116C218.056 35.143 217.674 35.4928 217.203 35.4928C216.732 35.4928 216.35 35.143 216.35 34.7116ZM217.203 34.4512C217.046 34.4512 216.918 34.5678 216.918 34.7116C216.918 34.8554 217.046 34.972 217.203 34.972C217.36 34.972 217.487 34.8554 217.487 34.7116C217.487 34.5678 217.36 34.4512 217.203 34.4512Z" fill="#EBE3DE"/>
<path fill-rule="evenodd" clip-rule="evenodd" d="M217.203 39.1382C216.732 39.1382 216.35 39.488 216.35 39.9194C216.35 40.3508 216.732 40.7006 217.203 40.7006C217.674 40.7006 218.056 40.3508 218.056 39.9194C218.056 39.488 217.674 39.1382 217.203 39.1382ZM216.918 39.9194C216.918 39.7756 217.046 39.659 217.203 39.659C217.36 39.659 217.487 39.7756 217.487 39.9194C217.487 40.0632 217.36 40.1798 217.203 40.1798C217.046 40.1798 216.918 40.0632 216.918 39.9194Z" fill="#EBE3DE"/>
<path fill-rule="evenodd" clip-rule="evenodd" d="M222.036 34.7116C222.036 34.2802 222.418 33.9304 222.889 33.9304C223.36 33.9304 223.742 34.2802 223.742 34.7116C223.742 35.143 223.36 35.4928 222.889 35.4928C222.418 35.4928 222.036 35.143 222.036 34.7116ZM222.889 34.4512C222.732 34.4512 222.604 34.5678 222.604 34.7116C222.604 34.8554 222.732 34.972 222.889 34.972C223.046 34.972 223.173 34.8554 223.173 34.7116C223.173 34.5678 223.046 34.4512 222.889 34.4512Z" fill="#EBE3DE"/>
<path fill-rule="evenodd" clip-rule="evenodd" d="M222.889 39.1382C222.418 39.1382 222.036 39.488 222.036 39.9194C222.036 40.3508 222.418 40.7006 222.889 40.7006C223.36 40.7006 223.742 40.3508 223.742 39.9194C223.742 39.488 223.36 39.1382 222.889 39.1382ZM222.604 39.9194C222.604 39.7756 222.732 39.659 222.889 39.659C223.046 39.659 223.173 39.7756 223.173 39.9194C223.173 40.0632 223.046 40.1798 222.889 40.1798C222.732 40.1798 222.604 40.0632 222.604 39.9194Z" fill="#EBE3DE"/>
<path fill-rule="evenodd" clip-rule="evenodd" d="M228.29 34.7116C228.29 34.2802 228.672 33.9304 229.143 33.9304C229.614 33.9304 229.996 34.2802 229.996 34.7116C229.996 35.143 229.614 35.4928 229.143 35.4928C228.672 35.4928 228.29 35.143 228.29 34.7116ZM229.143 34.4512C228.986 34.4512 228.859 34.5678 228.859 34.7116C228.859 34.8554 228.986 34.972 229.143 34.972C229.3 34.972 229.428 34.8554 229.428 34.7116C229.428 34.5678 229.3 34.4512 229.143 34.4512Z" fill="#EBE3DE"/>
<path fill-rule="evenodd" clip-rule="evenodd" d="M229.143 38.6175C228.672 38.6175 228.29 38.9672 228.29 39.3986C228.29 39.8301 228.672 40.1798 229.143 40.1798C229.614 40.1798 229.996 39.8301 229.996 39.3986C229.996 38.9672 229.614 38.6175 229.143 38.6175ZM228.859 39.3986C228.859 39.2548 228.986 39.1382 229.143 39.1382C229.3 39.1382 229.428 39.2548 229.428 39.3986C229.428 39.5424 229.3 39.659 229.143 39.659C228.986 39.659 228.859 39.5424 228.859 39.3986Z" fill="#EBE3DE"/>
<path fill-rule="evenodd" clip-rule="evenodd" d="M202.882 29.2434C200.886 29.2434 199.251 30.6953 199.188 32.5227L199.012 37.685C198.087 37.7582 197.225 38.0431 196.586 38.3942C195.851 38.7982 195.071 39.2967 194.649 40.5249C194.237 41.7244 194.176 43.5973 194.746 46.7324C195.883 52.9801 197.029 57.219 200.504 60.6668C201.888 62.0385 203.897 62.9388 206.072 63.0759L204.412 73.2107C204.4 73.2857 204.424 73.3618 204.478 73.4193C204.532 73.4767 204.61 73.5097 204.693 73.5097H206.683C206.809 73.5097 206.92 73.4343 206.956 73.3242L210.307 63.0941H230.922L234.273 73.3242C234.309 73.4343 234.42 73.5097 234.545 73.5097H236.535C236.618 73.5097 236.697 73.4767 236.751 73.4193C236.805 73.3618 236.829 73.2857 236.816 73.2107L235.134 62.9372C236.872 62.6123 238.443 61.8006 239.587 60.667C243.064 57.2173 244.08 52.9741 245.216 46.7324C245.786 43.5973 245.725 41.7244 245.313 40.5249C244.892 39.2967 244.111 38.7982 243.376 38.3942C243.078 38.2307 242.732 38.0815 242.354 37.9614C242.247 37.9199 242.138 37.8834 242.027 37.8496C241.988 37.8376 241.947 37.8339 241.908 37.8375C241.642 37.7738 241.364 37.7254 241.079 37.6966L240.903 32.5227C240.841 30.6953 239.205 29.2434 237.209 29.2434H202.882ZM209.713 63.0941H206.644L205.023 72.989H206.472L209.713 63.0941ZM233.44 62.5734C235.676 62.5734 237.771 61.6995 239.169 60.3136C242.516 56.9931 243.516 52.9037 244.655 46.6467C245.222 43.5325 245.141 41.7599 244.771 40.681C244.483 39.8425 244.017 39.4103 243.491 39.0782C243.593 39.3764 243.643 39.7381 243.643 40.1798C243.643 40.6651 243.459 41.7813 243.158 43.2153C242.855 44.6604 242.427 46.4549 241.929 48.314C240.935 52.0206 239.648 56.0228 238.492 58.0089C238.418 58.1358 238.246 58.1838 238.107 58.1161C237.969 58.0484 237.916 57.8907 237.99 57.7638C239.108 55.844 240.38 51.9043 241.377 48.1898C241.873 46.3383 242.299 44.5525 242.6 43.117C242.903 41.6704 243.074 40.6059 243.074 40.1798C243.074 39.4766 242.936 39.0863 242.74 38.8446C242.596 38.6679 242.403 38.5481 242.148 38.447C241.55 38.2599 240.865 38.1529 240.177 38.1975C239.099 38.2671 238.01 38.7061 237.211 39.8035C236.961 40.1469 236.707 40.6866 236.46 41.356C236.215 42.0208 235.983 42.7961 235.772 43.5991C235.349 45.2049 235.015 46.9079 234.826 48.0311C234.82 48.0692 234.805 48.1041 234.783 48.1344L236.696 49.3393C236.72 49.3539 236.74 49.3712 236.757 49.3903C237.478 49.8048 237.957 50.5394 237.957 51.3766V54.5013C237.957 55.7955 236.811 56.8448 235.398 56.8448H233.935C234.791 57.585 235.883 58.9689 236.247 60.9682C236.273 61.1101 236.168 61.2442 236.013 61.2679C235.858 61.2915 235.712 61.1957 235.686 61.0538C235.259 58.7082 233.764 57.2919 233.039 56.8448H205.915C205.19 57.2919 203.695 58.7082 203.268 61.0538C203.242 61.1957 203.096 61.2915 202.941 61.2679C202.786 61.2442 202.681 61.1101 202.707 60.9682C203.071 58.9689 204.163 57.585 205.019 56.8448H204.693C203.28 56.8448 202.135 55.7955 202.135 54.5013V51.3766C202.135 50.5394 202.614 49.8048 203.335 49.3903C203.352 49.3711 203.372 49.3539 203.395 49.3393L205.245 48.1742C205.052 47.0496 204.695 45.3456 204.256 43.7312C204.029 42.8955 203.78 42.0873 203.523 41.3976C203.263 40.7028 203.001 40.1469 202.751 39.8035C201.952 38.7061 200.863 38.2671 199.786 38.1975C199.28 38.1648 198.776 38.2138 198.307 38.3163C198.288 38.3275 198.267 38.3368 198.244 38.3437C197.833 38.4694 197.547 38.6045 197.352 38.8446C197.155 39.0863 197.017 39.4766 197.017 40.1798C197.017 40.6059 197.188 41.6704 197.492 43.117C197.793 44.5525 198.218 46.3383 198.715 48.1898C199.711 51.9043 200.983 55.844 202.101 57.7638C202.175 57.8907 202.123 58.0484 201.984 58.1161C201.845 58.1838 201.673 58.1358 201.599 58.0089C200.443 56.0228 199.156 52.0206 198.162 48.314C197.664 46.4549 197.236 44.6604 196.933 43.2153C196.633 41.7813 196.448 40.6651 196.448 40.1798C196.448 39.6869 196.511 39.2937 196.638 38.977C196.045 39.3245 195.509 39.755 195.192 40.681C194.821 41.7599 194.741 43.5325 195.307 46.6467C196.445 52.8977 197.574 56.9914 200.922 60.3136C202.32 61.6995 204.415 62.5734 206.652 62.5734H233.44ZM234.757 72.989L231.516 63.0941H234.585L236.205 72.989H234.757ZM203.995 29.7642H202.882C201.193 29.7642 199.809 30.9927 199.757 32.539L199.582 37.6677C199.663 37.6693 199.744 37.6727 199.826 37.678C200.618 37.7292 201.421 37.9585 202.135 38.4467V32.5309C202.135 31.3798 202.721 30.5469 203.554 30.011C203.694 29.9202 203.842 29.8381 203.995 29.7642ZM202.703 38.9122V32.5309C202.703 31.5663 203.184 30.8856 203.881 30.4369C204.587 29.9818 205.521 29.7642 206.397 29.7642H233.692C234.568 29.7642 235.502 29.9818 236.209 30.4369C236.905 30.8856 237.386 31.5663 237.386 32.5309L237.388 38.7919C237.157 38.999 236.939 39.2388 236.738 39.5146C236.446 39.9166 236.172 40.5091 235.921 41.1892C235.669 41.874 235.432 42.6655 235.219 43.4772C234.808 45.0396 234.48 46.6894 234.286 47.8217L232.439 46.6583C232.202 46.509 231.921 46.4292 231.633 46.4292H208.458C208.171 46.4292 207.89 46.509 207.653 46.6583L205.764 47.8478C205.56 46.7161 205.22 45.1223 204.807 43.6054C204.578 42.7614 204.325 41.9377 204.061 41.229C203.798 40.5255 203.517 39.9166 203.224 39.5146C203.061 39.2906 202.887 39.0904 202.703 38.9122ZM235.206 49.0331L232.116 47.0874C231.974 46.9979 231.806 46.9499 231.633 46.9499H208.458C208.286 46.9499 208.117 46.9979 207.975 47.0874L204.885 49.0331H235.206ZM235.398 56.324C236.497 56.324 237.388 55.5079 237.388 54.5013V51.3766C237.388 50.3699 236.497 49.5538 235.398 49.5538H204.693C203.594 49.5538 202.703 50.3699 202.703 51.3766V54.5013C202.703 55.5079 203.594 56.324 204.693 56.324H235.398ZM237.957 38.3619C238.637 37.9317 239.391 37.7262 240.137 37.678C240.261 37.6699 240.386 37.6663 240.51 37.6667L240.335 32.539C240.282 30.9927 238.898 29.7642 237.209 29.7642H236.095C236.248 29.8381 236.395 29.9202 236.536 30.011C237.368 30.5469 237.955 31.3798 237.955 32.5309L237.957 38.3619Z" fill="#EBE3DE"/>
<path d="M205.83 60.4902C205.83 60.3464 205.958 60.2298 206.115 60.2298H233.124C233.281 60.2298 233.408 60.3464 233.408 60.4902C233.408 60.634 233.281 60.7506 233.124 60.7506H206.115C205.958 60.7506 205.83 60.634 205.83 60.4902Z" stroke="#EBE3DE" stroke-width="5" stroke-linecap="round" stroke-linejoin="round"/>
<path fill-rule="evenodd" clip-rule="evenodd" d="M210.095 34.7116C210.095 34.2802 210.477 33.9304 210.948 33.9304C211.419 33.9304 211.801 34.2802 211.801 34.7116C211.801 35.143 211.419 35.4928 210.948 35.4928C210.477 35.4928 210.095 35.143 210.095 34.7116ZM210.948 34.4512C210.791 34.4512 210.664 34.5678 210.664 34.7116C210.664 34.8554 210.791 34.972 210.948 34.972C211.105 34.972 211.232 34.8554 211.232 34.7116C211.232 34.5678 211.105 34.4512 210.948 34.4512Z" stroke="#EBE3DE" stroke-width="5" stroke-linecap="round" stroke-linejoin="round"/>
<path fill-rule="evenodd" clip-rule="evenodd" d="M210.948 38.6175C210.477 38.6175 210.095 38.9672 210.095 39.3986C210.095 39.8301 210.477 40.1798 210.948 40.1798C211.419 40.1798 211.801 39.8301 211.801 39.3986C211.801 38.9672 211.419 38.6175 210.948 38.6175ZM210.664 39.3986C210.664 39.2548 210.791 39.1382 210.948 39.1382C211.105 39.1382 211.232 39.2548 211.232 39.3986C211.232 39.5424 211.105 39.659 210.948 39.659C210.791 39.659 210.664 39.5424 210.664 39.3986Z" stroke="#EBE3DE" stroke-width="5" stroke-linecap="round" stroke-linejoin="round"/>
<path fill-rule="evenodd" clip-rule="evenodd" d="M216.35 34.7116C216.35 34.2802 216.732 33.9304 217.203 33.9304C217.674 33.9304 218.056 34.2802 218.056 34.7116C218.056 35.143 217.674 35.4928 217.203 35.4928C216.732 35.4928 216.35 35.143 216.35 34.7116ZM217.203 34.4512C217.046 34.4512 216.918 34.5678 216.918 34.7116C216.918 34.8554 217.046 34.972 217.203 34.972C217.36 34.972 217.487 34.8554 217.487 34.7116C217.487 34.5678 217.36 34.4512 217.203 34.4512Z" stroke="#EBE3DE" stroke-width="5" stroke-linecap="round" stroke-linejoin="round"/>
<path fill-rule="evenodd" clip-rule="evenodd" d="M217.203 39.1382C216.732 39.1382 216.35 39.488 216.35 39.9194C216.35 40.3508 216.732 40.7006 217.203 40.7006C217.674 40.7006 218.056 40.3508 218.056 39.9194C218.056 39.488 217.674 39.1382 217.203 39.1382ZM216.918 39.9194C216.918 39.7756 217.046 39.659 217.203 39.659C217.36 39.659 217.487 39.7756 217.487 39.9194C217.487 40.0632 217.36 40.1798 217.203 40.1798C217.046 40.1798 216.918 40.0632 216.918 39.9194Z" stroke="#EBE3DE" stroke-width="5" stroke-linecap="round" stroke-linejoin="round"/>
<path fill-rule="evenodd" clip-rule="evenodd" d="M222.036 34.7116C222.036 34.2802 222.418 33.9304 222.889 33.9304C223.36 33.9304 223.742 34.2802 223.742 34.7116C223.742 35.143 223.36 35.4928 222.889 35.4928C222.418 35.4928 222.036 35.143 222.036 34.7116ZM222.889 34.4512C222.732 34.4512 222.604 34.5678 222.604 34.7116C222.604 34.8554 222.732 34.972 222.889 34.972C223.046 34.972 223.173 34.8554 223.173 34.7116C223.173 34.5678 223.046 34.4512 222.889 34.4512Z" stroke="#EBE3DE" stroke-width="5" stroke-linecap="round" stroke-linejoin="round"/>
<path fill-rule="evenodd" clip-rule="evenodd" d="M222.889 39.1382C222.418 39.1382 222.036 39.488 222.036 39.9194C222.036 40.3508 222.418 40.7006 222.889 40.7006C223.36 40.7006 223.742 40.3508 223.742 39.9194C223.742 39.488 223.36 39.1382 222.889 39.1382ZM222.604 39.9194C222.604 39.7756 222.732 39.659 222.889 39.659C223.046 39.659 223.173 39.7756 223.173 39.9194C223.173 40.0632 223.046 40.1798 222.889 40.1798C222.732 40.1798 222.604 40.0632 222.604 39.9194Z" stroke="#EBE3DE" stroke-width="5" stroke-linecap="round" stroke-linejoin="round"/>
<path fill-rule="evenodd" clip-rule="evenodd" d="M228.29 34.7116C228.29 34.2802 228.672 33.9304 229.143 33.9304C229.614 33.9304 229.996 34.2802 229.996 34.7116C229.996 35.143 229.614 35.4928 229.143 35.4928C228.672 35.4928 228.29 35.143 228.29 34.7116ZM229.143 34.4512C228.986 34.4512 228.859 34.5678 228.859 34.7116C228.859 34.8554 228.986 34.972 229.143 34.972C229.3 34.972 229.428 34.8554 229.428 34.7116C229.428 34.5678 229.3 34.4512 229.143 34.4512Z" stroke="#EBE3DE" stroke-width="5" stroke-linecap="round" stroke-linejoin="round"/>
<path fill-rule="evenodd" clip-rule="evenodd" d="M229.143 38.6175C228.672 38.6175 228.29 38.9672 228.29 39.3986C228.29 39.8301 228.672 40.1798 229.143 40.1798C229.614 40.1798 229.996 39.8301 229.996 39.3986C229.996 38.9672 229.614 38.6175 229.143 38.6175ZM228.859 39.3986C228.859 39.2548 228.986 39.1382 229.143 39.1382C229.3 39.1382 229.428 39.2548 229.428 39.3986C229.428 39.5424 229.3 39.659 229.143 39.659C228.986 39.659 228.859 39.5424 228.859 39.3986Z" stroke="#EBE3DE" stroke-width="5" stroke-linecap="round" stroke-linejoin="round"/>
<path fill-rule="evenodd" clip-rule="evenodd" d="M202.882 29.2434C200.886 29.2434 199.251 30.6953 199.188 32.5227L199.012 37.685C198.087 37.7582 197.225 38.0431 196.586 38.3942C195.851 38.7982 195.071 39.2967 194.649 40.5249C194.237 41.7244 194.176 43.5973 194.746 46.7324C195.883 52.9801 197.029 57.219 200.504 60.6668C201.888 62.0385 203.897 62.9388 206.072 63.0759L204.412 73.2107C204.4 73.2857 204.424 73.3618 204.478 73.4193C204.532 73.4767 204.61 73.5097 204.693 73.5097H206.683C206.809 73.5097 206.92 73.4343 206.956 73.3242L210.307 63.0941H230.922L234.273 73.3242C234.309 73.4343 234.42 73.5097 234.545 73.5097H236.535C236.618 73.5097 236.697 73.4767 236.751 73.4193C236.805 73.3618 236.829 73.2857 236.816 73.2107L235.134 62.9372C236.872 62.6123 238.443 61.8006 239.587 60.667C243.064 57.2173 244.08 52.9741 245.216 46.7324C245.786 43.5973 245.725 41.7244 245.313 40.5249C244.892 39.2967 244.111 38.7982 243.376 38.3942C243.078 38.2307 242.732 38.0815 242.354 37.9614C242.247 37.9199 242.138 37.8834 242.027 37.8496C241.988 37.8376 241.947 37.8339 241.908 37.8375C241.642 37.7738 241.364 37.7254 241.079 37.6966L240.903 32.5227C240.841 30.6953 239.205 29.2434 237.209 29.2434H202.882ZM209.713 63.0941H206.644L205.023 72.989H206.472L209.713 63.0941ZM233.44 62.5734C235.676 62.5734 237.771 61.6995 239.169 60.3136C242.516 56.9931 243.516 52.9037 244.655 46.6467C245.222 43.5325 245.141 41.7599 244.771 40.681C244.483 39.8425 244.017 39.4103 243.491 39.0782C243.593 39.3764 243.643 39.7381 243.643 40.1798C243.643 40.6651 243.459 41.7813 243.158 43.2153C242.855 44.6604 242.427 46.4549 241.929 48.314C240.935 52.0206 239.648 56.0228 238.492 58.0089C238.418 58.1358 238.246 58.1838 238.107 58.1161C237.969 58.0484 237.916 57.8907 237.99 57.7638C239.108 55.844 240.38 51.9043 241.377 48.1898C241.873 46.3383 242.299 44.5525 242.6 43.117C242.903 41.6704 243.074 40.6059 243.074 40.1798C243.074 39.4766 242.936 39.0863 242.74 38.8446C242.596 38.6679 242.403 38.5481 242.148 38.447C241.55 38.2599 240.865 38.1529 240.177 38.1975C239.099 38.2671 238.01 38.7061 237.211 39.8035C236.961 40.1469 236.707 40.6866 236.46 41.356C236.215 42.0208 235.983 42.7961 235.772 43.5991C235.349 45.2049 235.015 46.9079 234.826 48.0311C234.82 48.0692 234.805 48.1041 234.783 48.1344L236.696 49.3393C236.72 49.3539 236.74 49.3712 236.757 49.3903C237.478 49.8048 237.957 50.5394 237.957 51.3766V54.5013C237.957 55.7955 236.811 56.8448 235.398 56.8448H233.935C234.791 57.585 235.883 58.9689 236.247 60.9682C236.273 61.1101 236.168 61.2442 236.013 61.2679C235.858 61.2915 235.712 61.1957 235.686 61.0538C235.259 58.7082 233.764 57.2919 233.039 56.8448H205.915C205.19 57.2919 203.695 58.7082 203.268 61.0538C203.242 61.1957 203.096 61.2915 202.941 61.2679C202.786 61.2442 202.681 61.1101 202.707 60.9682C203.071 58.9689 204.163 57.585 205.019 56.8448H204.693C203.28 56.8448 202.135 55.7955 202.135 54.5013V51.3766C202.135 50.5394 202.614 49.8048 203.335 49.3903C203.352 49.3711 203.372 49.3539 203.395 49.3393L205.245 48.1742C205.052 47.0496 204.695 45.3456 204.256 43.7312C204.029 42.8955 203.78 42.0873 203.523 41.3976C203.263 40.7028 203.001 40.1469 202.751 39.8035C201.952 38.7061 200.863 38.2671 199.786 38.1975C199.28 38.1648 198.776 38.2138 198.307 38.3163C198.288 38.3275 198.267 38.3368 198.244 38.3437C197.833 38.4694 197.547 38.6045 197.352 38.8446C197.155 39.0863 197.017 39.4766 197.017 40.1798C197.017 40.6059 197.188 41.6704 197.492 43.117C197.793 44.5525 198.218 46.3383 198.715 48.1898C199.711 51.9043 200.983 55.844 202.101 57.7638C202.175 57.8907 202.123 58.0484 201.984 58.1161C201.845 58.1838 201.673 58.1358 201.599 58.0089C200.443 56.0228 199.156 52.0206 198.162 48.314C197.664 46.4549 197.236 44.6604 196.933 43.2153C196.633 41.7813 196.448 40.6651 196.448 40.1798C196.448 39.6869 196.511 39.2937 196.638 38.977C196.045 39.3245 195.509 39.755 195.192 40.681C194.821 41.7599 194.741 43.5325 195.307 46.6467C196.445 52.8977 197.574 56.9914 200.922 60.3136C202.32 61.6995 204.415 62.5734 206.652 62.5734H233.44ZM234.757 72.989L231.516 63.0941H234.585L236.205 72.989H234.757ZM203.995 29.7642H202.882C201.193 29.7642 199.809 30.9927 199.757 32.539L199.582 37.6677C199.663 37.6693 199.744 37.6727 199.826 37.678C200.618 37.7292 201.421 37.9585 202.135 38.4467V32.5309C202.135 31.3798 202.721 30.5469 203.554 30.011C203.694 29.9202 203.842 29.8381 203.995 29.7642ZM202.703 38.9122V32.5309C202.703 31.5663 203.184 30.8856 203.881 30.4369C204.587 29.9818 205.521 29.7642 206.397 29.7642H233.692C234.568 29.7642 235.502 29.9818 236.209 30.4369C236.905 30.8856 237.386 31.5663 237.386 32.5309L237.388 38.7919C237.157 38.999 236.939 39.2388 236.738 39.5146C236.446 39.9166 236.172 40.5091 235.921 41.1892C235.669 41.874 235.432 42.6655 235.219 43.4772C234.808 45.0396 234.48 46.6894 234.286 47.8217L232.439 46.6583C232.202 46.509 231.921 46.4292 231.633 46.4292H208.458C208.171 46.4292 207.89 46.509 207.653 46.6583L205.764 47.8478C205.56 46.7161 205.22 45.1223 204.807 43.6054C204.578 42.7614 204.325 41.9377 204.061 41.229C203.798 40.5255 203.517 39.9166 203.224 39.5146C203.061 39.2906 202.887 39.0904 202.703 38.9122ZM235.206 49.0331L232.116 47.0874C231.974 46.9979 231.806 46.9499 231.633 46.9499H208.458C208.286 46.9499 208.117 46.9979 207.975 47.0874L204.885 49.0331H235.206ZM235.398 56.324C236.497 56.324 237.388 55.5079 237.388 54.5013V51.3766C237.388 50.3699 236.497 49.5538 235.398 49.5538H204.693C203.594 49.5538 202.703 50.3699 202.703 51.3766V54.5013C202.703 55.5079 203.594 56.324 204.693 56.324H235.398ZM237.957 38.3619C238.637 37.9317 239.391 37.7262 240.137 37.678C240.261 37.6699 240.386 37.6663 240.51 37.6667L240.335 32.539C240.282 30.9927 238.898 29.7642 237.209 29.7642H236.095C236.248 29.8381 236.395 29.9202 236.536 30.011C237.368 30.5469 237.955 31.3798 237.955 32.5309L237.957 38.3619Z" stroke="#EBE3DE" stroke-width="5" stroke-linecap="round" stroke-linejoin="round"/>
</svg>
